<svg width="17" height="17" viewBox="0 0 17 17" fill="none" xmlns="http://www.w3.org/2000/svg">
<path fill-rule="evenodd" clip-rule="evenodd" d="M12.3718 3.86638C14.6664 6.26919 14.5787 10.0772 12.1759 12.3718C9.77311 14.6664 5.9651 14.5787 3.67049 12.1759C1.37588 9.77308 1.4636 5.96507 3.86641 3.67046C6.26922 1.37585 10.0772 1.46357 12.3718 3.86638ZM14.2431 13.0847C16.7639 9.99521 16.647 5.43964 13.8221 2.48146C10.7626 -0.72229 5.68524 -0.839244 2.48149 2.22023C-0.72226 5.27971 -0.839214 10.3571 2.22026 13.5608C5.04523 16.519 9.59059 16.8454 12.7929 14.4696L14.9131 16.6898C15.2955 17.0903 15.9302 17.1049 16.3307 16.7225C16.7311 16.34 16.7458 15.7054 16.3633 15.3049L14.2431 13.0847Z" fill="#B2B2B2"/>
</svg>
